# Blender v2.93.2 OBJ File: 'mount.blend'
# www.blender.org
mtllib drop.mtl
o Sphere
v 0.000000 -0.271213 -0.654765
v 0.000000 -0.654765 -0.271213
v 0.243810 0.069982 -0.592822
v 0.250568 -0.271213 -0.604924
v 0.191776 -0.501135 -0.462989
v 0.103789 -0.654765 -0.250568
v 0.450502 0.069982 -0.454715
v 0.462989 -0.271213 -0.462989
v 0.354356 -0.501135 -0.354356
v 0.191776 -0.654765 -0.191776
v 0.588610 0.069982 -0.248022
v 0.604924 -0.271213 -0.250568
v 0.462989 -0.501135 -0.191776
v 0.250568 -0.654765 -0.103789
v 0.637107 0.069982 -0.004212
v 0.654765 -0.271213 -0.000000
v 0.501135 -0.501135 -0.000000
v 0.271212 -0.654765 -0.000000
v 0.588610 0.069982 0.239598
v 0.604924 -0.271213 0.250568
v 0.462988 -0.501135 0.191776
v 0.250568 -0.654765 0.103788
v 0.450502 0.069982 0.446290
v 0.462988 -0.271213 0.462989
v 0.354356 -0.501135 0.354356
v 0.191776 -0.654765 0.191776
v 0.243810 0.069982 0.584397
v 0.250567 -0.271213 0.604924
v 0.191776 -0.501135 0.462988
v 0.103788 -0.654765 0.250568
v -0.000000 0.069982 0.632894
v -0.000000 -0.271213 0.654765
v -0.000000 -0.501135 0.501135
v -0.000000 -0.654765 0.271212
v -0.243810 0.069982 0.584397
v -0.250568 -0.271213 0.604924
v -0.191776 -0.501135 0.462988
v -0.103789 -0.654765 0.250567
v -0.450502 0.069982 0.446290
v -0.462989 -0.271213 0.462988
v -0.354356 -0.501135 0.354356
v -0.191776 -0.654765 0.191776
v -0.588610 0.069982 0.239598
v -0.604924 -0.271213 0.250567
v -0.462989 -0.501135 0.191776
v -0.250568 -0.654765 0.103788
v -0.637106 0.069982 -0.004212
v -0.654765 -0.271213 -0.000000
v -0.501135 -0.501135 -0.000000
v -0.271212 -0.654765 -0.000000
v -0.588610 0.069982 -0.248022
v -0.604924 -0.271213 -0.250568
v -0.462988 -0.501135 -0.191776
v -0.250568 -0.654765 -0.103789
v -0.450502 0.069982 -0.454715
v -0.462988 -0.271213 -0.462989
v -0.354356 -0.501135 -0.354356
v -0.191776 -0.654765 -0.191776
v -0.243810 0.069982 -0.592822
v -0.250567 -0.271213 -0.604924
v -0.191776 -0.501135 -0.462989
v -0.103788 -0.654765 -0.250568
v 0.000000 0.070184 -0.641319
v 0.000000 -0.501135 -0.501135
v 0.000000 -0.708712 -0.000000
v 0.000000 0.069780 -0.641319
v 0.000000 1.345932 0.000000
v 0.262275 -0.105121 -0.633188
v 0.484621 -0.105121 -0.484621
v 0.633188 -0.105121 -0.262275
v 0.685358 -0.105121 0.000000
v 0.633188 -0.105121 0.262275
v 0.484621 -0.105121 0.484621
v 0.262275 -0.105121 0.633188
v -0.000000 -0.105121 0.685358
v -0.262275 -0.105121 0.633188
v -0.484621 -0.105121 0.484621
v -0.633188 -0.105121 0.262275
v -0.685358 -0.105121 -0.000000
v -0.633188 -0.105121 -0.262275
v -0.484621 -0.105121 -0.484621
v -0.262275 -0.105121 -0.633188
v 0.000000 -0.105008 -0.685358
vt 0.761803 0.244669
vt 0.807058 0.198767
vt 0.833630 0.235611
vt 0.776729 0.264602
vt 0.885897 0.123758
vt 0.914884 0.095779
vt 0.970313 0.170305
vt 0.932092 0.188763
vt 0.710499 0.299655
vt 0.856911 0.151737
vt 0.893872 0.207221
vt 0.784452 0.288162
vt 0.913791 0.270191
vt 0.847426 0.278625
vt 0.995832 0.260497
vt 0.954812 0.265344
vt 0.912639 0.336055
vt 0.847130 0.323689
vt 0.784229 0.312968
vt 0.992150 0.351868
vt 0.952395 0.343961
vt 0.832912 0.366515
vt 0.776054 0.336549
vt 0.961589 0.436181
vt 0.926558 0.417080
vt 0.891527 0.397978
vt 0.908640 0.506474
vt 0.880937 0.478551
vt 0.760591 0.356573
vt 0.853233 0.450628
vt 0.806199 0.403282
vt 0.739048 0.370992
vt 0.801627 0.490313
vt 0.769222 0.430993
vt 0.839557 0.558106
vt 0.820592 0.524210
vt 0.724473 0.447573
vt 0.713015 0.378082
vt 0.761269 0.589512
vt 0.751064 0.552377
vt 0.740859 0.515243
vt 0.674039 0.451627
vt 0.684343 0.376331
vt 0.679964 0.602550
vt 0.677094 0.564062
vt 0.674224 0.525574
vt 0.655222 0.364144
vt 0.602560 0.522663
vt 0.618907 0.441369
vt 0.599735 0.602779
vt 0.601147 0.562721
vt 0.625099 0.311757
vt 0.629911 0.279917
vt 0.535808 0.305409
vt 0.445010 0.275660
vt 0.487174 0.201166
vt 0.556693 0.247437
vt 0.401661 0.250271
vt 0.358312 0.224882
vt 0.414688 0.141375
vt 0.450931 0.171270
vt 0.589801 0.203295
vt 0.644411 0.253771
vt 0.485465 0.072608
vt 0.512535 0.108516
vt 0.539606 0.144425
vt 0.631500 0.173290
vt 0.665544 0.235174
vt 0.569684 0.024692
vt 0.585721 0.065299
vt 0.601757 0.105907
vt 0.690487 0.225018
vt 0.669879 0.087299
vt 0.678102 0.158051
vt 0.662398 0.002227
vt 0.666138 0.044763
vt 0.738783 0.089491
vt 0.725609 0.157824
vt 0.716530 0.223571
vt 0.756278 0.007538
vt 0.747531 0.048514
vt 0.769896 0.171961
vt 0.741085 0.230459
vt 0.843021 0.040020
vt 0.822918 0.075896
vt 0.802815 0.111771
vt 0.393175 0.623180
vt 0.385521 0.974590
vt 0.328048 0.609321
vt 0.262878 0.625759
vt 0.201760 0.653722
vt 0.146714 0.692286
vt 0.099557 0.740177
vt 0.061849 0.795813
vt 0.034834 0.857356
vt 0.019406 0.922772
vt 0.016075 0.989900
vt 0.740979 0.872738
vt 0.716670 0.810077
vt 0.681420 0.752852
vt 0.636394 0.702953
vt 0.583079 0.662028
vt 0.523237 0.631430
vt 0.458845 0.612170
vt 0.273412 0.571068
vt 0.237575 0.514819
vt 0.225991 0.449137
vt 0.240424 0.384022
vt 0.278677 0.329387
vt 0.334926 0.293550
vt 0.400608 0.281966
vt 0.465723 0.296399
vt 0.520358 0.334652
vt 0.556196 0.390901
vt 0.567780 0.456583
vt 0.553347 0.521698
vt 0.515094 0.576333
vn -0.0000 -0.9152 -0.4031
vn 0.0000 -0.6952 -0.7189
vn 0.2751 -0.6952 -0.6641
vn 0.1543 -0.9152 -0.3724
vn 0.0000 0.0314 -0.9995
vn 0.0000 0.2439 -0.9698
vn 0.3700 0.2455 -0.8960
vn 0.3830 0.0321 -0.9232
vn -0.0000 -1.0000 -0.0000
vn -0.0000 -0.3676 -0.9300
vn 0.3559 -0.3676 -0.8592
vn 0.2850 -0.9152 -0.2850
vn 0.6576 -0.3676 -0.6576
vn 0.5083 -0.6952 -0.5083
vn 0.6831 0.2503 -0.6861
vn 0.7074 0.0345 -0.7060
vn 0.8592 -0.3676 -0.3559
vn 0.6641 -0.6952 -0.2751
vn 0.3724 -0.9152 -0.1543
vn 0.8917 0.2573 -0.3723
vn 0.9237 0.0381 -0.3812
vn 0.7189 -0.6952 0.0000
vn 0.4031 -0.9152 0.0000
vn 0.9641 0.2656 -0.0029
vn 0.9991 0.0422 0.0014
vn 0.9300 -0.3676 0.0000
vn 0.8896 0.2738 0.3656
vn 0.9224 0.0464 0.3834
vn 0.3724 -0.9152 0.1543
vn 0.8592 -0.3676 0.3559
vn 0.6641 -0.6952 0.2751
vn 0.2850 -0.9152 0.2850
vn 0.6576 -0.3676 0.6576
vn 0.5083 -0.6952 0.5083
vn 0.6801 0.2808 0.6772
vn 0.7056 0.0498 0.7069
vn 0.2751 -0.6952 0.6641
vn 0.1543 -0.9152 0.3724
vn 0.3678 0.2854 0.8850
vn 0.3817 0.0521 0.9228
vn 0.3559 -0.3676 0.8592
vn -0.0000 -0.6952 0.7189
vn -0.0000 -0.9152 0.4031
vn -0.0000 0.2870 0.9579
vn -0.0000 0.0529 0.9986
vn -0.0000 -0.3676 0.9300
vn -0.1543 -0.9152 0.3724
vn -0.3559 -0.3676 0.8592
vn -0.2751 -0.6952 0.6641
vn -0.3678 0.2854 0.8850
vn -0.3817 0.0521 0.9228
vn -0.2850 -0.9152 0.2850
vn -0.6576 -0.3676 0.6576
vn -0.5083 -0.6952 0.5083
vn -0.6801 0.2808 0.6772
vn -0.7056 0.0498 0.7069
vn -0.6641 -0.6952 0.2751
vn -0.3724 -0.9152 0.1543
vn -0.8896 0.2738 0.3656
vn -0.9224 0.0464 0.3834
vn -0.8592 -0.3676 0.3559
vn -0.7189 -0.6952 -0.0000
vn -0.4031 -0.9152 -0.0000
vn -0.9641 0.2656 -0.0029
vn -0.9991 0.0422 0.0014
vn -0.9300 -0.3676 -0.0000
vn -0.3724 -0.9152 -0.1543
vn -0.8592 -0.3676 -0.3559
vn -0.6641 -0.6952 -0.2751
vn -0.8917 0.2573 -0.3723
vn -0.9237 0.0381 -0.3812
vn -0.6576 -0.3676 -0.6576
vn -0.5083 -0.6952 -0.5083
vn -0.2850 -0.9152 -0.2850
vn -0.6831 0.2503 -0.6861
vn -0.7074 0.0345 -0.7060
vn -0.2751 -0.6952 -0.6641
vn -0.1543 -0.9152 -0.3724
vn -0.3700 0.2455 -0.8960
vn -0.3830 0.0321 -0.9232
vn -0.3559 -0.3676 -0.8592
vn -0.0000 0.4490 -0.8935
vn -0.0000 1.0000 0.0026
vn 0.3416 0.4489 -0.8257
vn 0.6319 0.4484 -0.6322
vn 0.8260 0.4476 -0.3425
vn 0.8947 0.4467 -0.0003
vn 0.8271 0.4458 0.3423
vn 0.6334 0.4451 0.6331
vn 0.3429 0.4445 0.8275
vn -0.0000 0.4444 0.8958
vn -0.3429 0.4445 0.8275
vn -0.6334 0.4451 0.6331
vn -0.8271 0.4458 0.3423
vn -0.8947 0.4467 -0.0003
vn -0.8260 0.4476 -0.3425
vn -0.6319 0.4484 -0.6322
vn -0.3416 0.4489 -0.8257
usemtl Material.009
s 1
f 2/1/1 64/2/2 5/3/3 6/4/4
f 83/5/5 63/6/6 3/7/7 68/8/8
f 65/9/9 2/1/1 6/4/4
f 64/2/2 1/10/10 4/11/11 5/3/3
f 65/9/9 6/4/4 10/12/12
f 5/3/3 4/11/11 8/13/13 9/14/14
f 6/4/4 5/3/3 9/14/14 10/12/12
f 68/8/8 3/7/7 7/15/15 69/16/16
f 9/14/14 8/13/13 12/17/17 13/18/18
f 10/12/12 9/14/14 13/18/18 14/19/19
f 69/16/16 7/15/15 11/20/20 70/21/21
f 65/9/9 10/12/12 14/19/19
f 14/19/19 13/18/18 17/22/22 18/23/23
f 70/21/21 11/20/20 15/24/24 71/25/25
f 65/9/9 14/19/19 18/23/23
f 13/18/18 12/17/17 16/26/26 17/22/22
f 71/25/25 15/24/24 19/27/27 72/28/28
f 65/9/9 18/23/23 22/29/29
f 17/22/22 16/26/26 20/30/30 21/31/31
f 18/23/23 17/22/22 21/31/31 22/29/29
f 65/9/9 22/29/29 26/32/32
f 21/31/31 20/30/30 24/33/33 25/34/34
f 22/29/29 21/31/31 25/34/34 26/32/32
f 72/28/28 19/27/27 23/35/35 73/36/36
f 26/32/32 25/34/34 29/37/37 30/38/38
f 73/36/36 23/35/35 27/39/39 74/40/40
f 65/9/9 26/32/32 30/38/38
f 25/34/34 24/33/33 28/41/41 29/37/37
f 30/38/38 29/37/37 33/42/42 34/43/43
f 74/40/40 27/39/39 31/44/44 75/45/45
f 65/9/9 30/38/38 34/43/43
f 29/37/37 28/41/41 32/46/46 33/42/42
f 65/9/9 34/43/43 38/47/47
f 33/42/42 32/46/46 36/48/48 37/49/49
f 34/43/43 33/42/42 37/49/49 38/47/47
f 75/45/45 31/44/44 35/50/50 76/51/51
f 65/9/9 38/52/47 42/53/52
f 37/54/49 36/55/48 40/56/53 41/57/54
f 38/52/47 37/54/49 41/57/54 42/53/52
f 76/58/51 35/59/50 39/60/55 77/61/56
f 42/53/52 41/57/54 45/62/57 46/63/58
f 77/61/56 39/60/55 43/64/59 78/65/60
f 65/9/9 42/53/52 46/63/58
f 41/57/54 40/56/53 44/66/61 45/62/57
f 46/63/58 45/62/57 49/67/62 50/68/63
f 78/65/60 43/64/59 47/69/64 79/70/65
f 65/9/9 46/63/58 50/68/63
f 45/62/57 44/66/61 48/71/66 49/67/62
f 65/9/9 50/68/63 54/72/67
f 49/67/62 48/71/66 52/73/68 53/74/69
f 50/68/63 49/67/62 53/74/69 54/72/67
f 79/70/65 47/69/64 51/75/70 80/76/71
f 53/74/69 52/73/68 56/77/72 57/78/73
f 54/72/67 53/74/69 57/78/73 58/79/74
f 80/76/71 51/75/70 55/80/75 81/81/76
f 65/9/9 54/72/67 58/79/74
f 58/79/74 57/78/73 61/82/77 62/83/78
f 81/81/76 55/80/75 59/84/79 82/85/80
f 65/9/9 58/79/74 62/83/78
f 57/78/73 56/77/72 60/86/81 61/82/77
f 82/85/80 59/84/79 63/6/6 83/5/5
f 65/9/9 62/83/78 2/1/1
f 61/82/77 60/86/81 1/10/10 64/2/2
f 62/83/78 61/82/77 64/2/2 2/1/1
f 66/87/82 67/88/83 3/89/84
f 3/89/84 67/88/83 7/90/85
f 7/90/85 67/88/83 11/91/86
f 11/91/86 67/88/83 15/92/87
f 15/92/87 67/88/83 19/93/88
f 19/93/88 67/88/83 23/94/89
f 23/94/89 67/88/83 27/95/90
f 27/95/90 67/88/83 31/96/91
f 31/96/91 67/88/83 35/97/92
f 35/98/92 67/88/83 39/99/93
f 39/99/93 67/88/83 43/100/94
f 43/100/94 67/88/83 47/101/95
f 47/101/95 67/88/83 51/102/96
f 51/102/96 67/88/83 55/103/97
f 55/103/97 67/88/83 59/104/98
f 59/104/98 67/88/83 66/87/82
f 66/87/9 3/89/9 7/105/9 11/106/9 15/107/9 19/108/9 23/109/9 27/110/9 31/111/9 35/112/9 39/113/9 43/114/9 47/115/9 51/116/9 55/117/9 59/104/9
f 60/86/81 82/85/80 83/5/5 1/10/10
f 56/77/72 81/81/76 82/85/80 60/86/81
f 52/73/68 80/76/71 81/81/76 56/77/72
f 48/71/66 79/70/65 80/76/71 52/73/68
f 44/66/61 78/65/60 79/70/65 48/71/66
f 40/56/53 77/61/56 78/65/60 44/66/61
f 36/55/48 76/58/51 77/61/56 40/56/53
f 32/46/46 75/45/45 76/51/51 36/48/48
f 28/41/41 74/40/40 75/45/45 32/46/46
f 24/33/33 73/36/36 74/40/40 28/41/41
f 20/30/30 72/28/28 73/36/36 24/33/33
f 16/26/26 71/25/25 72/28/28 20/30/30
f 12/17/17 70/21/21 71/25/25 16/26/26
f 8/13/13 69/16/16 70/21/21 12/17/17
f 4/11/11 68/8/8 69/16/16 8/13/13
f 1/10/10 83/5/5 68/8/8 4/11/11
